PathFileType	4	(X/Y/Z)	s03c0203.trc
DataRate	CameraRate	NumFrames	NumMarkers	Units	OrigDataRate	OrigDataStartFrame	OrigNumFrames
200	200	4	50	mm	200	250	2000
Frame#	Time	racr			lacr			c7			jug			rlel			rdr			llel			ldr			s2			lic			ric			lasi			rasi			rpsi			lpsi			rgt			lgt			rth1			rth2			rth3			rth4			rlfc			rmfc			rsh1			rsh2			rsh3			rsh4			rlmal			rcal			rtoe			rmt5			rmt1			lth1			lth2			lth4			lth3			llfc			lmfc			lsh1			lsh2			lsh3			lsh4			llmal			lcal			ltoe			lmt1			lmt5			SBIKE			LBIKE			RBIKE			
		X1	Y1	Z1	X2	Y2	Z2	X3	Y3	Z3	X4	Y4	Z4	X5	Y5	Z5	X6	Y6	Z6	X7	Y7	Z7	X8	Y8	Z8	X9	Y9	Z9	X10	Y10	Z10	X11	Y11	Z11	X12	Y12	Z12	X13	Y13	Z13	X14	Y14	Z14	X15	Y15	Z15	X16	Y16	Z16	X17	Y17	Z17	X18	Y18	Z18	X19	Y19	Z19	X20	Y20	Z20	X21	Y21	Z21	X22	Y22	Z22	X23	Y23	Z23	X24	Y24	Z24	X25	Y25	Z25	X26	Y26	Z26	X27	Y27	Z27	X28	Y28	Z28	X29	Y29	Z29	X30	Y30	Z30	X31	Y31	Z31	X32	Y32	Z32	X33	Y33	Z33	X34	Y34	Z34	X35	Y35	Z35	X36	Y36	Z36	X37	Y37	Z37	X38	Y38	Z38	X39	Y39	Z39	X40	Y40	Z40	X41	Y41	Z41	X42	Y42	Z42	X43	Y43	Z43	X44	Y44	Z44	X45	Y45	Z45	X46	Y46	Z46	X47	Y47	Z47	X48	Y48	Z48	X49	Y49	Z49	X50	Y50	Z50	
250	1.2500	457.538074	1441.644823	-78.541968	453.449596	1465.800853	-391.904820	373.687529	1522.375629	-233.724600	424.237476	1356.491381	-234.297539	513.111005	1176.048057	17.730760	736.071526	984.731736	-21.890872	519.786774	1199.946091	-465.110386	726.681588	977.059562	-437.111284	-122.283296	1206.434791	-253.787833	69.676971	1213.571018	-431.799208	45.226509	1234.871723	-62.290568	82.831826	1135.065257	-390.361943	60.885614	1172.818374	-105.726279	-94.415938	1257.418247	-209.316717	-83.526627	1252.007610	-292.274222	-15.633271	1155.351665	-45.572804	-0.768636	1104.221564	-447.286357	109.852220	1073.300501	-24.597605	198.878216	1074.126970	-22.408986	275.321982	1033.219487	-22.784629	207.940322	1107.126423	-37.471494	396.194370	972.429438	-42.687745	406.807266	958.525080	-166.572302	338.478340	816.464187	-26.882148	325.231910	730.250781	-45.392619	269.059166	661.832099	-50.899428	353.116923	722.174620	-71.231055	208.971859	544.058386	-76.634141	143.356302	496.923722	-118.969335	452.922125	497.064241	-120.241363	334.893750	477.160993	-49.702525	359.531325	494.764615	-164.366683	70.576408	962.664611	-474.186846	130.928215	900.184432	-478.661702	162.730619	918.164577	-474.767852	153.232149	814.193354	-471.296395	231.044831	707.844476	-457.706480	242.822942	698.533953	-334.683931	142.686656	556.794547	-470.400647	132.185064	475.368934	-450.114989	76.192571	403.951050	-435.956905	161.891430	465.601997	-425.782953	18.651054	291.922847	-406.856512	-49.553399	256.471784	-354.446175	253.703733	198.463799	-363.187977	161.852430	210.818784	-317.971684	130.011998	193.894968	-431.249096	-221.101540	943.108397	-237.210465	-14.485086	80.528611	-437.482228	-14.482264	80.541705	-37.103491	
251	1.2550	457.517505	1441.595830	-78.578592	453.517322	1465.783014	-391.875713	373.717937	1522.358490	-233.746465	424.258359	1356.462279	-234.319474	513.071833	1176.007914	17.748637	736.081267	984.723814	-21.904868	519.777047	1199.957160	-465.177813	726.682273	977.073704	-437.168115	-122.294988	1206.442735	-253.833352	69.697981	1213.537763	-431.805852	45.238286	1234.893987	-62.331186	82.861782	1135.057378	-390.385980	60.893381	1172.834117	-105.773537	-94.418556	1257.436127	-209.356054	-83.522979	1252.004147	-292.311150	-15.645160	1155.367901	-45.603879	-0.760541	1104.204668	-447.308412	109.850007	1073.328198	-24.614841	198.865327	1074.152802	-22.414968	275.291961	1033.271304	-22.792569	207.923910	1107.167067	-37.487760	396.167811	972.462248	-42.667866	406.797032	958.538352	-166.529859	338.500822	816.483258	-26.870706	325.249677	730.275871	-45.384235	269.081800	661.839883	-50.879699	353.154939	722.214095	-71.209529	209.010838	544.058649	-76.631784	143.397552	496.920070	-118.983630	452.949541	497.041804	-120.234391	334.920331	477.146458	-49.688132	359.566984	494.743944	-164.371918	70.583708	962.665772	-474.217821	130.945441	900.188530	-478.691749	162.734866	918.174269	-474.800557	153.272592	814.192873	-471.318814	231.072078	707.866327	-457.729763	242.852702	698.534087	-334.713582	142.720155	556.817839	-470.403677	132.183783	475.391320	-450.108919	76.192746	403.970802	-435.956055	161.900462	465.601812	-425.802620	18.653477	291.947910	-406.847771	-49.562302	256.498183	-354.449913	253.691672	198.467683	-363.196619	161.834583	210.820216	-317.983578	129.987386	193.911993	-431.239799	-221.106561	943.105671	-237.215649	-14.490581	80.536041	-437.478389	-14.482909	80.525853	-37.108096	
252	1.2600	457.560794	1441.557029	-78.591856	453.554518	1465.772819	-391.837116	373.712194	1522.343250	-233.697288	424.274745	1356.448231	-234.305155	513.017573	1175.954646	17.774028	736.065602	984.732723	-21.936331	519.784110	1199.947250	-465.211811	726.701689	977.074502	-437.237724	-122.278483	1206.441034	-253.879091	69.734204	1213.524204	-431.822521	45.231413	1234.893198	-62.369624	82.880629	1135.033483	-390.444399	60.867756	1172.835541	-105.778654	-94.417182	1257.426500	-209.400729	-83.484543	1252.014935	-292.367599	-15.661436	1155.387836	-45.614633	-0.743299	1104.188653	-447.326947	109.840703	1073.385531	-24.635556	198.830147	1074.236591	-22.424243	275.279098	1033.313823	-22.787678	207.892598	1107.207202	-37.491073	396.167723	972.495040	-42.665823	406.788363	958.536945	-166.499060	338.522515	816.482343	-26.862928	325.261833	730.271388	-45.387761	269.115237	661.845097	-50.876467	353.186000	722.216908	-71.224502	209.062608	544.072564	-76.624152	143.450110	496.951997	-118.986750	452.994166	497.016183	-120.248289	334.949188	477.137277	-49.695252	359.604850	494.733052	-164.355988	70.601496	962.670410	-474.249101	130.966798	900.190611	-478.722115	162.747965	918.189821	-474.817752	153.294834	814.203863	-471.357413	231.113680	707.868086	-457.777947	242.890289	698.555494	-334.731155	142.737005	556.843057	-470.433578	132.222477	475.550235	-450.255655	76.195682	404.020258	-435.977088	161.906900	465.628752	-425.815288	18.647185	292.001931	-406.854968	-49.576586	256.553434	-354.444182	253.670618	198.457677	-363.194153	161.827866	210.845685	-317.973637	129.975687	193.931472	-431.223113	-221.102546	943.105115	-237.232018	-14.488774	80.539736	-437.487876	-14.493357	80.539360	-37.104727	
253	1.2650	457.565733	1441.531589	-78.598200	453.592905	1465.776297	-391.829350	373.745068	1522.318589	-233.713301	424.310910	1356.425510	-234.307161	512.986581	1175.891312	17.792130	736.057278	984.747441	-21.958583	519.768792	1199.939778	-465.277422	726.706767	977.084460	-437.298830	-122.279630	1206.420750	-253.881662	69.733201	1213.496279	-431.818899	45.224197	1234.907840	-62.386079	82.886048	1135.036687	-390.456164	60.844508	1172.876842	-105.789018	-94.392049	1257.432729	-209.462560	-83.473005	1252.009293	-292.417873	-15.674236	1155.417525	-45.642588	-0.748548	1104.179132	-447.358049	109.827970	1073.425503	-24.644060	198.797064	1074.281665	-22.420415	275.255732	1033.352980	-22.791229	207.871608	1107.247496	-37.505276	396.148852	972.542290	-42.625665	406.787493	958.573325	-166.506520	338.524253	816.514821	-26.838608	325.283118	730.284707	-45.370539	269.156966	661.846350	-50.880033	353.201646	722.237239	-71.192452	209.106636	544.086041	-76.617860	143.512554	496.979043	-119.001402	453.033307	496.965191	-120.263403	335.006157	477.126378	-49.691872	359.666851	494.703153	-164.358871	70.606119	962.675649	-474.281594	130.988335	900.217437	-478.741507	162.768600	918.192700	-474.831968	153.319701	814.225296	-471.395095	231.156987	707.905048	-457.796856	242.935047	698.567891	-334.769245	142.765573	556.865364	-470.453222	132.217242	475.572500	-450.265183	76.200948	404.048541	-435.981844	162.055827	465.636598	-425.920019	18.646916	292.076870	-406.840870	-49.586134	256.612333	-354.455886	253.648900	198.482889	-363.195585	161.829441	210.872406	-318.002499	129.953738	193.966855	-431.252579	-221.107123	943.113610	-237.222769	-14.482576	80.533525	-437.478183	-14.493179	80.540366	-37.102933	
